<?xml version="1.0" encoding="UTF-8"?>
<svg id="Layer_1" xmlns="http://www.w3.org/2000/svg" version="1.1" viewBox="0 0 1500 1500">
  <!-- Generator: Adobe Illustrator 30.0.0, SVG Export Plug-In . SVG Version: 2.1.1 Build 123)  -->
  <defs>
    <style>
      .st0 {
        fill: #d4423e;
      }

      .st1 {
        fill: #ebe0c1;
      }

      .st2 {
        fill: #e9dbc0;
      }

      .st3 {
        fill: #faab4c;
      }

      .st4 {
        fill: #ffcb6b;
      }
    </style>
  </defs>
  <path class="st1" d="M716.7,635.9c-39.6,0-71.9-32.2-71.9-71.9s7-36.1,19.8-49.5l2.1-2.2h100l2.1,2.2c12.8,13.4,19.8,31,19.8,49.5,0,39.6-32.2,71.9-71.9,71.9ZM672.8,526.3c-9.1,10.5-14,23.8-14,37.8,0,31.9,26,57.9,58,57.9s57.9-26,57.9-57.9-5-27.2-14-37.8h-87.8Z"/>
  <circle class="st1" cx="717.4" cy="664.1" r="13.8"/>
  <circle class="st4" cx="717.4" cy="705.6" r="13.8"/>
  <circle class="st1" cx="717.4" cy="705.6" r="13.8"/>
  <polygon class="st3" points="799.5 589.2 897.3 513.1 799.5 513.1 799.5 589.2"/>
  <path class="st1" d="M716.7,521.7c-23.5,0-42.5,19-42.5,42.5s19,42.5,42.5,42.5,42.5-19,42.5-42.5-19-42.5-42.5-42.5ZM725.4,575.2c-9.3,0-16.8-7.5-16.8-16.8s7.5-16.8,16.8-16.8,16.8,7.5,16.8,16.8-7.5,16.8-16.8,16.8Z"/>
  <path class="st0" d="M871.5,661.2l-71.9-71.9v143.6h.1c19.7,19.9,52.1,19.9,71.8.1h0c19.7-19.7,19.7-52.1,0-71.8Z"/>
  <g>
    <path class="st1" d="M914,467.9v20.2h-341.1v-20.2h246.8c.1,0,.3.1.4.2-.1,0-.2-.1-.3-.2h94.2Z"/>
    <g>
      <polygon class="st1" points="848.6 373.1 866.1 245.8 620.8 245.8 638.4 373.1 848.6 373.1"/>
      <polygon class="st1" points="641.4 400 649.2 468.3 837.8 468.3 845.5 400 641.4 400"/>
    </g>
  </g>
  <g>
    <path class="st2" d="M465.5,574.8h19.1v5.2h-12.9v4.5h11.1v4.9h-11.1v5.4h13.1v5.3h-19.4v-25.3Z"/>
    <path class="st2" d="M493.4,592.1h6.3c.3,2.5,1.9,3.6,4.9,3.6s4.1-.7,4.1-2.6-2.1-2.4-5.5-3.3c-4.4-1-9-2.4-9-7.7s4.4-7.8,10-7.8,9.7,2.5,10,7.8h-6.1c-.2-1.9-1.7-3-4.1-3s-3.6,1-3.6,2.4,1.9,2.2,5.7,3c4.7,1.1,8.9,2.5,8.9,7.9s-4.5,8.2-10.4,8.2-11.1-3-11.3-8.6Z"/>
    <path class="st2" d="M530,580.1h-7.3v-5.3h21v5.3h-7.4v20h-6.3v-20Z"/>
    <path class="st2" d="M553.1,574.8h10.8c7,0,11.7,5.1,11.7,12.8s-1.6,8-4.4,10.2c-2,1.5-4.5,2.3-7.7,2.3h-10.4v-25.3ZM563,594.8c4.1,0,6.2-2.6,6.2-7.2s-2.2-7.6-6.1-7.6h-3.8v14.8h3.7Z"/>
  </g>
  <g>
    <path class="st2" d="M918.3,591.6c2.2-1.9,5-3.6,6.9-5.3,1-.9,1.6-1.8,1.6-3,0-1.9-1.1-3.1-3.1-3.1s-2,.4-2.6,1.1c-.7.8-1.1,1.9-1.1,3.6h-5.6c0-2.8.5-4.6,1.7-6.1,1.4-2,4-3.3,7.8-3.3,5.8,0,9,3.5,9,7.7s-1.9,5.3-4,7c-2.2,1.8-4.8,3.2-6.5,5.1h0s10.5,0,10.5,0v4.9h-18.8c0-4.1,1.9-6.4,4.3-8.4Z"/>
    <path class="st2" d="M941.9,587.9c0-7.7,4.3-12.6,10.7-12.6s10.7,4.9,10.7,12.6-4.3,12.6-10.7,12.6-10.7-4.9-10.7-12.6ZM957.1,587.9c0-4.7-1.3-8-4.6-8s-4.6,3.3-4.6,8,1.3,8,4.6,8,4.6-3.2,4.6-8Z"/>
    <path class="st2" d="M975.9,591.6c2.2-1.9,5-3.6,6.9-5.3,1-.9,1.6-1.8,1.6-3,0-1.9-1.1-3.1-3.1-3.1s-2,.4-2.6,1.1c-.7.8-1.1,1.9-1.1,3.6h-5.6c0-2.8.5-4.6,1.7-6.1,1.4-2,4-3.3,7.8-3.3,5.8,0,9,3.5,9,7.7s-1.9,5.3-4,7c-2.2,1.8-4.8,3.2-6.5,5.1h0s10.5,0,10.5,0v4.9h-18.8c0-4.1,1.9-6.4,4.3-8.4Z"/>
    <path class="st2" d="M1001.6,598.3c-1.8-1.6-2.7-3.8-2.7-6.6h5.6c.1,2.6,1.4,4.4,4.4,4.4s3.8-1.3,3.8-3.4-1.5-3.2-4.1-3.2h-1.4v-4.1h1.3c2.3,0,3.8-1,3.8-2.8s-1.2-2.8-3.2-2.8-3.7,1.6-3.9,3.7h-5.5c.1-4.8,3.5-8.2,9.5-8.2s9,2.5,9,6.8-1.5,4-3.7,4.8h0c2.6.9,4.4,2.8,4.4,6,0,5.2-4.5,7.6-9.6,7.6s-5.9-.8-7.6-2.3Z"/>
  </g>
  <g>
    <path class="st3" d="M840.4,878.1c-10.3-8.2-10.9-8.5-15.7-6.6-5.4,2.2-9.4,7.6-9.4,12.8s3,7.1,7.5,12.1l7.5,8.4h12.9c8.8-.1,14.4-.9,17.6-2.6,6.8-3.6,21.9-20.4,23.1-25.6,1.2-5.5-2.8-25.9-7.3-37.3l-3.4-8.5-20.7-10.4c-11.5-5.8-22.5-10.4-24.7-10.4-2.2,0-13.1,3.8-24.1,8.2-29.8,12.1-41.1,18-43.9,23-1.3,2.4-7.8,12.9-14.3,23.2-6.5,10.3-14.4,23.5-17.4,29.3-6.1,11.5-6.1,10.4,0,36.9,1.9,8.2,3.1,15.4,2.7,15.8s-2.3.8-4,.8-4.9,1.1-6.9,2.6c-3.5,2.4-3.6,3.3-2.9,14.8.4,6.8,1.5,13,2.4,13.9,1.2,1.2,3.7,1.1,8.8-.3,4-1.1,7.4-1.7,7.7-1.4,1.7,1.8,4.1,30.9,5.1,62.2l1.1,35.3-3.5,1.3c-2,.7-5.4,1.8-7.7,2.4l-4.2,1,3.5-3.8c5.2-5.7,6.9-13.5,4.6-20.7q-2.1-6.3-16.5-4.9l-5.4.5-1-20.9c-.6-11.5-1.2-35.1-1.3-52.5-.4-39.8-1.4-48.9-6-52.6-4.4-3.6-12.2-5.9-24.3-7.1-11.9-1.2-18.2,1.6-34.8,15.7-12.8,10.8-14.5,13.6-12.9,21.8,1.6,8.6,5.5,11.3,16.3,11.3h9.1l.5,26.6c.6,34.3-.1,40.8-5,44.6-9,7-17.4,5.4-22.8-4.5-2.3-4.2-5.2-15.1-8-30.1-2.4-12.9-6.5-33-9.1-44.7-2.6-11.6-4.8-24-4.8-27.3,0-9.5-4.6-11.9-28.5-14.9-11.9-1.5-12.2-1.5-22.6,4.9-6.8,4.1-10.4,5.2-16.4,5.2s-7.9-.3-12.1-6.6c-9.7-14.7-18.2-24.4-24.3-27.7-5.9-3.2-8.6-3.5-29.6-3.5s-23.5.2-32.1,4.4c-7.3,3.6-22.2,16.6-33.3,28.1l-1.6-2.3-10-6c-4-2.8-8.9-3.8-13.7-2.8l-22.9,5c-5.7,1.2-9.8,6.8-9.4,12.9l.5,16.3c.5,1.9,2.9,4.2,6.4,4.2l21-1.6,9.9,6c-4.3,11.1-8,23.3-8,27.3,0,6.5,1,8.5,13.3,25.7,5.4,7.5,9.8,14.9,9.8,16.4s-4.4,11.7-9.9,22.7l-9.9,20,3.7,9.1c2.3,5.6,5.8,11.1,9.3,14.1,5.3,4.7,5.6,5.5,5.4,13.9-.1,4.9-.8,13.3-1.5,18.6l-1.2,9.7,13.5,12.9c7.4,7.1,15.7,14.1,18.5,15.5,6,3.1,35.6,10,42.9,10,7.9,0,32.1-8.6,44.3-15.7,22.2-13,41.1-30.3,47.7-43.6,5.3-10.6,10.3-26.1,11.3-34.7.8-6.8.5-7.5-4.4-11.8-2.9-2.6-7.2-6-9.7-7.8-4.3-3.1-4.5-3.7-4.2-13.2.2-8.1-.3-10.7-2.9-14-4.7-6-17.5-9.4-32.4-8.6-10.9.6-13.1,1.4-29.6,10.2-9.9,5.3-22.2,10.7-27.6,12-11.5,2.9-14.2,4.1-21.8,10.1-3.1,2.4-7,4.4-8.8,4.4-4.4,0-6.9-5.3-5.7-11.8,1.2-6.2,1.8-6.3,23.2-7.2,18-.7,24-3,50-18.5,26.9-16.1,35.5-26.5,38.1-46.3l1-7.5,6.3,1c3.5.5,6.5,1.1,6.7,1.3s2.2,7.6,4.4,16.5c2.2,9,6.1,20.8,8.7,26.5,4.2,9.5,4.6,11.6,4.2,24.7-.4,13.4-.1,14.9,4.2,23.5,9.2,18.1,21.4,26.1,43.5,28.2,8.4.8,10.3.4,17.6-3.5,4.6-2.4,10.8-7,13.9-10.2l5.7-5.8,1,4.9c.5,2.6,1,6.8,1,9s.8,4.8,1.9,5.7c2.7,2.1,21,6.5,31.8,7.7,9.9,1,16.8-1.4,26.2-9.4,4.1-3.5,4.6-3.6,3.9-1.1-1.2,4.6,2.4,13.9,6.2,15.9,5.9,3.1,31.8,3.5,44.7.7,17.5-3.9,44.3-18.1,47-24.9,1.4-3.6-3-11.5-6.8-12.5s-6-.4-8.9.1c-4.7.9-5.5.6-6.1-2.5-1.5-7.6-2.4-16.9-4-40.9-1.1-16.9-2.8-29.4-5.3-39.3-2.7-10.6-3.2-14.7-1.9-15.5,1-.6,6.2-2.3,11.8-3.7,5.6-1.5,12.7-4.3,16-6.5l6-3.8-.8-9.3c-.6-6.5-1.8-10.2-4-12.4-3.1-3.1-3.3-3.1-17.4-.6-19.1,3.4-18.7,3.9-17.9-24.5.5-18.4,1.1-22.6,3.9-27.9,3.7-7.1,20.2-23,28.5-27.5l5.3-2.8,15,8.2c16,8.8,18,11.4,15.4,20.3-2.1,7.2-5.7,8.8-10.9,4.6ZM453.4,1094.2c7.6-6.4,51.8-34.3,54.3-34.3s9.9,2.9,19.1,6.4c12.9,4.9,16.6,7,16,8.9-.4,1.4-1.5,5.9-2.4,10-2.3,10.4-4.8,14.7-12.9,22.3-5.9,5.5-16.3,11.5-23.2,13.6-9.1,2.7-13.2,2.2-29.4-3.2-18.4-6.1-21.1-7.9-24.1-15.2-1.8-4.4-1.6-4.9,2.6-8.5ZM473.3,1001.3c-2.3,0-24.1-12.5-30.1-17.3-7.3-5.8-11.4-20.9-8.8-33,1-4.7,3.1-8.2,6.7-11.4,6.2-5.5,10.1-5.8,25.4-2.1,6.9,1.7,12.1,4,14.6,6.4,5,5,17.8,30.2,17.8,35.2,0,7.1-17.3,22.2-25.6,22.2Z"/>
    <path class="st3" d="M935.2,944.2c-11.2-.1-11.7-1.1-8.2-17.5,7.1-32.8,11-38.9,32.6-50,19.3-9.9,17.7-10.1,32.5,3.4,14.1,12.9,14.9,14.8,9.7,23.3-3.2,5.1-3.2,5.4-.6,9.4,6.1,9.2,12.1,10.3,24.9,4.3,7.2-3.3,8.3-4.5,9.9-10.4,1.1-4.1,1.4-11.1.8-18.3-1.7-20.4-2.3-21.4-19-35-24.9-20.2-22.6-19.7-56.7-13.7-35.9,6.2-34.4,5.4-59.8,31.4-33.3,34-31.1,30.4-31.8,50.7l-.6,17.3-9.9.6c-6,.4-10.8,1.5-12.2,2.9-3,3-7.7,27.2-6.3,32.6l1,4.1,13.2-1,13.2-1-1,9.1c-1.5,13.4-6.7,44.4-11.4,67.6l-4.1,20.3-8.4,1.2c-9.7,1.3-10.9,2.6-11,11.3,0,8,2.9,10.8,15.7,14.7,22.5,7,44.5,6.7,66.3-.9,12.6-4.4,16.9-7.5,16.9-12.3s-4.1-9.9-11.8-11l-7.2-1.1.9-11.8c.5-6.5,2.4-20.8,4.2-31.8,1.9-11.8,3.3-27.2,3.4-37.4,0-19.6-.4-19,15.1-19s19.5-2.4,22.4-6.6c2.6-3.7,3.2-17.5.9-21-1.6-2.6-12-4.6-23.8-4.7Z"/>
    <path class="st3" d="M1088.4,999.2c-28.1-13.2-36.1-15.9-54.5-17.8-19.1-2-22.5-4-22.5-13.5s.8-7.9,4.5-11.5,5.7-4.5,12.3-4.5c17.6,0,34.7,10.8,36.6,23.2,2.1,12.9,16.6,21.3,24.4,14,4.8-4.5,8.7-17.1,8.7-28.1s0-9.2-10.3-19.9c-8.4-8.8-11.7-11.2-18.2-13.1-8.4-2.4-35.1-7-40.3-6.9-1.7,0-12.9,4.1-25,9-25,10.2-28.9,12.5-31.9,18.4-3.5,6.9-6.1,24.7-6.2,42-.1,19.9.5,20.9,23.4,39.2l16.3,13,18-.9c9.9-.5,19.7-.5,21.8,0,6.2,1.5,18.5,11.9,20.8,17.4,4.2,10.2-2.4,16.3-21,19.2-13.8,2.1-22,1-29.7-4-8.2-5.5-15.3-15.6-14.1-20.3,1.3-5.1-3.8-10.1-14.5-14.5-9.9-4-11.1-3.6-18.2,6.7-10.1,14.6-8.5,27.9,4.9,41.5,10.5,10.6,21.1,16.6,39.4,22.1l13.2,4,20.7-6.8c26.5-8.7,35.3-13.2,46.6-24,14.8-14.1,15.6-16.4,16.2-47.4l.5-26.3-21.9-10.3Z"/>
  </g>
  <rect class="st1" x="691" y="733.4" width="52.8" height="13.8"/>
  <g>
    <path class="st1" d="M509.3,1240.5h8.6c.4,3.5,2.7,4.9,6.8,4.9s5.6-1,5.6-3.6-2.8-3.3-7.6-4.5c-6-1.4-12.3-3.2-12.3-10.5s6-10.7,13.7-10.7,13.3,3.4,13.7,10.7h-8.4c-.3-2.7-2.4-4.2-5.6-4.2s-5,1.3-5,3.2,2.7,3,7.8,4.2c6.4,1.5,12.3,3.5,12.3,10.9s-6.2,11.3-14.2,11.3-15.3-4.1-15.4-11.7Z"/>
    <path class="st1" d="M554.6,1234.2c0-10.4,6.6-18.1,17.1-18.1s17.1,7.7,17.1,18.1-6.6,18.1-17.1,18.1-17.1-7.7-17.1-18.1ZM580.1,1234.2c0-6.3-2.8-11.1-8.4-11.1s-8.4,4.8-8.4,11.1,2.9,11.1,8.4,11.1,8.4-4.8,8.4-11.1Z"/>
    <path class="st1" d="M604.3,1234.2c0-10.3,6.7-18.1,17-18.1s7.4,1.2,9.9,3c3,2.3,4.7,5.7,5.2,9.5h-8.6c-.4-3.1-2.9-5.5-6.5-5.5-5.6,0-8.3,4.7-8.3,11s3.2,10.9,8.3,10.9,6.3-2.4,6.7-5.8h8.6c-.2,3.4-1.8,6.6-4.2,8.9-2.7,2.6-6.2,3.9-11.1,3.9-10.2,0-17.1-7.6-17.1-18Z"/>
    <path class="st1" d="M653.3,1216.8h8.6v34.6h-8.6v-34.6Z"/>
    <path class="st1" d="M690.2,1216.8h8.8l12.5,34.6h-9l-2-6.2h-12.1l-2,6.2h-8.6l12.4-34.6ZM698.5,1239l-2.6-8.4c-.6-1.8-1.4-4.9-1.4-4.9h0s-.8,3.1-1.4,4.9l-2.7,8.4h8.1Z"/>
    <path class="st1" d="M727.5,1216.8h8.6v27.3h15.5v7.3h-24.1v-34.6Z"/>
    <path class="st1" d="M788.1,1234.2c0-10.3,6.7-18.1,17-18.1s7.4,1.2,9.9,3c3,2.3,4.7,5.7,5.2,9.5h-8.6c-.4-3.1-2.9-5.5-6.5-5.5-5.6,0-8.3,4.7-8.3,11s3.2,10.9,8.3,10.9,6.3-2.4,6.7-5.8h8.6c-.2,3.4-1.8,6.6-4.2,8.9-2.7,2.6-6.2,3.9-11.1,3.9-10.2,0-17.1-7.6-17.1-18Z"/>
    <path class="st1" d="M837,1216.8h8.6v27.3h15.5v7.3h-24.1v-34.6Z"/>
    <path class="st1" d="M877,1239.2v-22.4h8.6v22.7c0,3.4,1.7,5.7,6,5.7s5.9-2.4,5.9-5.8v-22.6h8.6v22.4c0,8-4.8,12.8-14.4,12.8s-14.5-4.7-14.5-12.8Z"/>
    <path class="st1" d="M924,1216.8h16.7c3.6,0,6.2.9,8.1,2.4,2,1.7,3,3.9,3,6.6s-1.8,5.6-4.8,6.8h0c3.8,1.3,6.2,4.5,6.2,8.6s-1.3,6-3.5,7.7c-2,1.6-4.9,2.5-8.5,2.5h-17.1v-34.6ZM939.4,1230.5c2.5,0,4.2-1.2,4.2-3.5s-1.6-3.4-4.1-3.4h-7v6.9h7ZM940.1,1244.5c2.8,0,4.6-1.6,4.6-4.1s-2-4.2-4.7-4.2h-7.5v8.2h7.6Z"/>
  </g>
</svg>