<?xml version="1.0" encoding="UTF-8"?>
<svg id="Layer_1" xmlns="http://www.w3.org/2000/svg" version="1.1" viewBox="0 0 128 128">
  <defs>
    <style>
      .st0 {
        fill: #faaa4a;
      }

      .st1 {
        fill: #2e3144;
      }
    </style>
  </defs>
  <rect class="st1" x="-.5" y="-.6" width="128.6" height="128.6"/>
  <g>
    <path class="st0" d="M75.2,48.4c-1.5-1.2-1.5-1.2-2.2-.9-.8.3-1.3,1.1-1.3,1.8s.4,1,1.1,1.7l1.1,1.2h1.8c1.2,0,2-.1,2.5-.4,1-.5,3.1-2.9,3.3-3.6.2-.8-.4-3.7-1-5.3l-.5-1.2-2.9-1.5c-1.6-.8-3.2-1.5-3.5-1.5-.3,0-1.8.5-3.4,1.2-4.2,1.7-5.8,2.5-6.2,3.2-.2.3-1.1,1.8-2,3.3-.9,1.5-2,3.3-2.5,4.1-.9,1.6-.9,1.5,0,5.2.3,1.2.4,2.2.4,2.2s-.3.1-.6.1-.7.2-1,.4c-.5.3-.5.5-.4,2.1,0,1,.2,1.8.3,2,.2.2.5.2,1.2,0,.6-.2,1-.2,1.1-.2.2.3.6,4.4.7,8.8l.2,5-.5.2c-.3.1-.8.3-1.1.3h-.6c0,.1.5-.4.5-.4.7-.8,1-1.9.6-2.9q-.3-.9-2.3-.7h-.8c0,0-.1-2.9-.1-2.9,0-1.6-.2-5-.2-7.4,0-5.6-.2-6.9-.9-7.4-.6-.5-1.7-.8-3.4-1-1.7-.2-2.6.2-4.9,2.2-1.8,1.5-2,1.9-1.8,3.1.2,1.2.8,1.6,2.3,1.6h1.3v3.8c.2,4.8,0,5.8-.6,6.3-1.3,1-2.5.8-3.2-.6-.3-.6-.7-2.1-1.1-4.2-.3-1.8-.9-4.7-1.3-6.3-.4-1.6-.7-3.4-.7-3.8,0-1.3-.6-1.7-4-2.1-1.7-.2-1.7-.2-3.2.7-1,.6-1.5.7-2.3.7s-1.1,0-1.7-.9c-1.4-2.1-2.6-3.4-3.4-3.9-.8-.4-1.2-.5-4.2-.5s-3.3,0-4.5.6c-1,.5-3.1,2.3-4.7,4l-.2-.3-1.4-.8c-.6-.4-1.3-.5-1.9-.4l-3.2.7c-.8.2-1.4,1-1.3,1.8v2.3c.1.3.5.6,1,.6l3-.2,1.4.8c-.6,1.6-1.1,3.3-1.1,3.8,0,.9.1,1.2,1.9,3.6.8,1.1,1.4,2.1,1.4,2.3s-.6,1.6-1.4,3.2l-1.4,2.8.5,1.3c.3.8.8,1.6,1.3,2,.7.7.8.8.8,2,0,.7-.1,1.9-.2,2.6l-.2,1.4,1.9,1.8c1,1,2.2,2,2.6,2.2.8.4,5,1.4,6.1,1.4,1.1,0,4.5-1.2,6.2-2.2,3.1-1.8,5.8-4.3,6.7-6.2.7-1.5,1.5-3.7,1.6-4.9.1-1,0-1.1-.6-1.7-.4-.4-1-.8-1.4-1.1-.6-.4-.6-.5-.6-1.9,0-1.1,0-1.5-.4-2-.7-.9-2.5-1.3-4.6-1.2-1.5,0-1.8.2-4.2,1.4-1.4.7-3.1,1.5-3.9,1.7-1.6.4-2,.6-3.1,1.4-.4.3-1,.6-1.2.6-.6,0-1-.7-.8-1.7.2-.9.2-.9,3.3-1,2.5-.1,3.4-.4,7.1-2.6,3.8-2.3,5-3.7,5.4-6.5v-1.1c.1,0,1,.1,1,.1.5,0,.9.2.9.2s.3,1.1.6,2.3c.3,1.3.9,2.9,1.2,3.7.6,1.3.6,1.6.6,3.5,0,1.9,0,2.1.6,3.3,1.3,2.6,3,3.7,6.1,4,1.2.1,1.5,0,2.5-.5.6-.3,1.5-1,2-1.4l.8-.8v.7c.2.4.3,1,.3,1.3s.1.7.3.8c.4.3,3,.9,4.5,1.1,1.4.1,2.4-.2,3.7-1.3.6-.5.7-.5.6-.1-.2.6.3,2,.9,2.2.8.4,4.5.5,6.3,0,2.5-.5,6.3-2.6,6.6-3.5.2-.5-.4-1.6-1-1.8s-.8,0-1.3,0c-.7.1-.8,0-.9-.4-.2-1.1-.3-2.4-.6-5.8-.2-2.4-.4-4.2-.7-5.5-.4-1.5-.5-2.1-.3-2.2.1,0,.9-.3,1.7-.5.8-.2,1.8-.6,2.3-.9l.8-.5v-1.3c-.2-.9-.4-1.4-.7-1.8-.4-.4-.5-.4-2.5,0-2.7.5-2.6.6-2.5-3.4,0-2.6.2-3.2.5-3.9.5-1,2.9-3.3,4-3.9l.7-.4,2.1,1.2c2.3,1.2,2.5,1.6,2.2,2.9-.3,1-.8,1.2-1.5.7ZM20.6,78.9c1.1-.9,7.3-4.8,7.7-4.8s1.4.4,2.7.9c1.8.7,2.3,1,2.3,1.3,0,.2-.2.8-.3,1.4-.3,1.5-.7,2.1-1.8,3.1-.8.8-2.3,1.6-3.3,1.9-1.3.4-1.9.3-4.1-.5-2.6-.9-3-1.1-3.4-2.1-.3-.6-.2-.7.4-1.2ZM23.4,65.8c-.3,0-3.4-1.8-4.3-2.4-1-.8-1.6-2.9-1.2-4.7.1-.7.4-1.2,1-1.6.9-.8,1.4-.8,3.6-.3,1,.2,1.7.6,2.1.9.7.7,2.5,4.3,2.5,5,0,1-2.4,3.1-3.6,3.1Z"/>
    <path class="st0" d="M88.5,57.8c-1.6,0-1.6-.2-1.2-2.5,1-4.6,1.6-5.5,4.6-7,2.7-1.4,2.5-1.4,4.6.5,2,1.8,2.1,2.1,1.4,3.3-.4.7-.4.8,0,1.3.9,1.3,1.7,1.5,3.5.6,1-.5,1.2-.6,1.4-1.5.2-.6.2-1.6.1-2.6-.2-2.9-.3-3-2.7-4.9-3.5-2.9-3.2-2.8-8-1.9-5.1.9-4.8.8-8.4,4.4-4.7,4.8-4.4,4.3-4.5,7.2v2.4c0,0-1.5,0-1.5,0-.9,0-1.5.2-1.7.4-.4.4-1.1,3.8-.9,4.6v.6c.1,0,2-.1,2-.1h1.9c0-.1-.1,1.2-.1,1.2-.2,1.9-.9,6.3-1.6,9.5l-.6,2.9-1.2.2c-1.4.2-1.5.4-1.5,1.6,0,1.1.4,1.5,2.2,2.1,3.2,1,6.3.9,9.4-.1,1.8-.6,2.4-1.1,2.4-1.7s-.6-1.4-1.7-1.6h-1c0-.1.1-1.8.1-1.8,0-.9.3-2.9.6-4.5.3-1.7.5-3.8.5-5.3,0-2.8,0-2.7,2.1-2.7s2.7-.3,3.2-.9c.4-.5.4-2.5.1-3-.2-.4-1.7-.7-3.4-.7Z"/>
    <path class="st0" d="M110.2,65.5c-4-1.9-5.1-2.2-7.7-2.5-2.7-.3-3.2-.6-3.2-1.9s.1-1.1.6-1.6.8-.6,1.7-.6c2.5,0,4.9,1.5,5.2,3.3.3,1.8,2.3,3,3.4,2,.7-.6,1.2-2.4,1.2-4s0-1.3-1.5-2.8c-1.2-1.2-1.7-1.6-2.6-1.8-1.2-.3-4.9-1-5.7-1-.2,0-1.8.6-3.5,1.3-3.5,1.4-4.1,1.8-4.5,2.6-.5,1-.9,3.5-.9,5.9,0,2.8,0,2.9,3.3,5.5l2.3,1.8h2.5c1.4-.2,2.8-.2,3.1-.1.9.2,2.6,1.7,2.9,2.5.6,1.4-.3,2.3-3,2.7-1.9.3-3.1.1-4.2-.6-1.2-.8-2.2-2.2-2-2.9.2-.7-.5-1.4-2.1-2-1.4-.6-1.6-.5-2.6.9-1.4,2.1-1.2,3.9.7,5.8,1.5,1.5,3,2.3,5.6,3.1l1.9.6,2.9-1c3.7-1.2,5-1.9,6.6-3.4,2.1-2,2.2-2.3,2.3-6.7v-3.7c0,0-3-1.5-3-1.5Z"/>
  </g>
</svg>
